<svg width="166" height="166" fill="none" xmlns="http://www.w3.org/2000/svg"><circle cx="83" cy="83" r="83" fill="#fff"/><rect x="33.669" y="32.915" width="67.693" height="92.22" rx="3" transform="rotate(-9.735 33.669 32.915)" fill="#EFC5DE"/><rect x="47.595" y="44.461" width="44.148" height="3.924" rx="1.962" transform="rotate(-9.735 47.595 44.461)" fill="#DA6CA2"/><rect x="50.913" y="63.8" width="44.148" height="3.924" rx="1.962" transform="rotate(-9.735 50.913 63.8)" fill="#DA6CA2"/><rect x="55.89" y="92.808" width="44.148" height="3.924" rx="1.962" transform="rotate(-9.735 55.89 92.808)" fill="#DA6CA2"/><rect x="49.253" y="54.13" width="44.148" height="3.924" rx="1.962" transform="rotate(-9.735 49.253 54.13)" fill="#DA6CA2"/><rect x="54.23" y="83.138" width="44.148" height="3.924" rx="1.962" transform="rotate(-9.735 54.23 83.138)" fill="#DA6CA2"/><rect x="52.571" y="73.469" width="44.148" height="3.924" rx="1.962" transform="rotate(-9.735 52.571 73.469)" fill="#DA6CA2"/><rect x="57.548" y="102.477" width="44.148" height="3.924" rx="1.962" transform="rotate(-9.735 57.548 102.477)" fill="#DA6CA2"/><path d="M75.716 90.5c0 22.368 49.54 40.5 27.39 40.5S63 112.868 63 90.5 80.956 50 103.106 50c7.798 0 11.104 1.228 7.336 3.457-6.934 4.104-29.655 13.362-34.725 37.043Z" fill="#fff"/><path d="M107.803 51.948a38.327 38.327 0 1 0-4.099 76.388 38.32 38.32 0 0 0 17.217-4.29l20.725 26.3a7.183 7.183 0 0 0 7.686 2.691 7.184 7.184 0 0 0 5.264-6.212 7.188 7.188 0 0 0-1.664-5.365l-20.705-26.317a38.33 38.33 0 0 0-5.437-55.413 38.328 38.328 0 0 0-18.987-7.782Zm-28.314 35.23a23.956 23.956 0 1 1 47.576 5.66 23.956 23.956 0 0 1-47.576-5.66Z" fill="#EFC5DE"/><circle cx="103.399" cy="90.078" r="24" transform="rotate(-8.167 103.399 90.078)" fill="#F6ECF3" fill-opacity=".7"/></svg>