<svg width="31" height="37" viewBox="0 0 31 37" fill="none" xmlns="http://www.w3.org/2000/svg">
<path d="M0.567688 14.1298L14.1302 0.567274C14.4935 0.204048 14.9862 0 15.5 0C16.0138 0 16.5065 0.204048 16.8698 0.567274L30.4323 14.1298C30.7957 14.493 30.9999 14.9858 31 15.4996V34.0725C31 34.5863 30.7959 35.0791 30.4325 35.4425C30.0692 35.8058 29.5764 36.01 29.0625 36.01H19.375V22.4475H11.625V36.01H1.9375C1.42364 36.01 0.930833 35.8058 0.567481 35.4425C0.204129 35.0791 0 34.5863 0 34.0725V15.4996C0.000109735 14.9858 0.204311 14.493 0.567688 14.1298Z" fill="black"/>
</svg>
