<svg width="34" height="35" viewBox="0 0 34 35" fill="none" xmlns="http://www.w3.org/2000/svg">
<path d="M13.5702 8.93922e-07C11.4463 0.00113612 9.3523 0.500527 7.45646 1.45804C5.56063 2.41554 3.91586 3.80446 2.65436 5.51316C1.39287 7.22186 0.549823 9.20267 0.192992 11.2964C-0.163838 13.3901 -0.024504 15.5384 0.599797 17.5685C1.2241 19.5985 2.31595 21.4539 3.78761 22.9853C5.25926 24.5167 7.06966 25.6815 9.0733 26.3861C11.0769 27.0907 13.2179 27.3154 15.3242 27.0422C17.4305 26.7689 19.4433 26.0054 21.2008 24.8129L29.5917 33.197C29.8248 33.4471 30.1058 33.6477 30.4181 33.7869C30.7304 33.926 31.0675 34.0008 31.4093 34.0069C31.7511 34.0129 32.0907 33.95 32.4077 33.822C32.7247 33.6939 33.0126 33.5034 33.2544 33.2616C33.4961 33.0199 33.6867 32.7319 33.8147 32.4149C33.9428 32.0979 34.0056 31.7584 33.9996 31.4166C33.9936 31.0747 33.9188 30.7376 33.7796 30.4254C33.6405 30.1131 33.4398 29.832 33.1897 29.599L24.8056 21.2081C26.1927 19.1666 26.9971 16.7857 27.1323 14.3213C27.2675 11.857 26.7284 9.40234 25.573 7.2214C24.4176 5.04047 22.6896 3.21571 20.5748 1.94334C18.46 0.670964 16.0383 -0.000894558 13.5702 8.93922e-07ZM5.08431 13.5775C5.08431 11.3269 5.97836 9.16846 7.56978 7.57704C9.1612 5.98562 11.3196 5.09156 13.5702 5.09156C15.8209 5.09156 17.9793 5.98562 19.5707 7.57704C21.1621 9.16846 22.0562 11.3269 22.0562 13.5775C22.0562 15.8281 21.1621 17.9865 19.5707 19.578C17.9793 21.1694 15.8209 22.0634 13.5702 22.0634C11.3196 22.0634 9.1612 21.1694 7.56978 19.578C5.97836 17.9865 5.08431 15.8281 5.08431 13.5775Z" fill="black"/>
</svg>
