<svg width="40" height="35" fill="none" xmlns="http://www.w3.org/2000/svg"><path fill-rule="evenodd" clip-rule="evenodd" d="M10.5 1a2.375 2.375 0 0 1 2.374 2.375v4.75a2.375 2.375 0 1 1-4.75 0v-4.75A2.375 2.375 0 0 1 10.5 1v0Z" fill="#000" stroke="#000" stroke-linecap="round" stroke-linejoin="round"/><path fill-rule="evenodd" clip-rule="evenodd" d="M39 5.75H12.874Z" fill="#000"/><path d="M39 5.75H12.874" stroke="#000" stroke-linecap="round" stroke-linejoin="round"/><path fill-rule="evenodd" clip-rule="evenodd" d="M8.125 5.75H1Z" fill="#000"/><path d="M8.125 5.75H1" stroke="#000" stroke-linecap="round" stroke-linejoin="round"/><path fill-rule="evenodd" clip-rule="evenodd" d="M10.5 24.75a2.375 2.375 0 0 1 2.374 2.375v4.75a2.375 2.375 0 1 1-4.75 0v-4.75A2.375 2.375 0 0 1 10.5 24.75Z" fill="#000" stroke="#000" stroke-linecap="round" stroke-linejoin="round"/><path fill-rule="evenodd" clip-rule="evenodd" d="M39 29.5H12.874Z" fill="#000"/><path d="M39 29.5H12.874" stroke="#000" stroke-linecap="round" stroke-linejoin="round"/><path fill-rule="evenodd" clip-rule="evenodd" d="M8.125 29.5H1Z" fill="#000"/><path d="M8.125 29.5H1" stroke="#000" stroke-linecap="round" stroke-linejoin="round"/><path fill-rule="evenodd" clip-rule="evenodd" d="M29.5 12.875a2.375 2.375 0 0 1 2.375 2.375V20a2.375 2.375 0 1 1-4.75 0v-4.75a2.375 2.375 0 0 1 2.375-2.375v0Z" fill="#000" stroke="#000" stroke-linecap="round" stroke-linejoin="round"/><path fill-rule="evenodd" clip-rule="evenodd" d="M27.125 17.625H1Z" fill="#000"/><path d="M27.125 17.625H1" stroke="#000" stroke-linecap="round" stroke-linejoin="round"/><path fill-rule="evenodd" clip-rule="evenodd" d="M39 17.625h-7.125Z" fill="#000"/><path d="M39 17.625h-7.125" stroke="#000" stroke-linecap="round" stroke-linejoin="round"/></svg>