<svg width="34" height="35" fill="none" xmlns="http://www.w3.org/2000/svg"><path d="M17 0c.45 0 .883.184 1.202.513.319.328.498.773.498 1.237V7c0 .464-.18.91-.498 1.237A1.676 1.676 0 0 1 17 8.75c-.45 0-.883-.184-1.202-.513A1.776 1.776 0 0 1 15.3 7V1.75c0-.464.18-.91.498-1.237A1.676 1.676 0 0 1 17 0Zm0 26.25c.45 0 .883.184 1.202.513.319.328.498.773.498 1.237v5.25c0 .464-.18.91-.498 1.237A1.676 1.676 0 0 1 17 35c-.45 0-.883-.184-1.202-.513a1.776 1.776 0 0 1-.498-1.237V28c0-.464.18-.91.498-1.237A1.676 1.676 0 0 1 17 26.25Zm17-8.75c0 .464-.18.91-.498 1.237a1.676 1.676 0 0 1-1.202.513h-5.1c-.45 0-.883-.184-1.202-.513A1.776 1.776 0 0 1 25.5 17.5c0-.464.18-.91.498-1.237a1.676 1.676 0 0 1 1.202-.513h5.1c.45 0 .883.184 1.202.513.319.328.498.773.498 1.237Zm-25.5 0c0 .464-.18.91-.498 1.237a1.676 1.676 0 0 1-1.202.513H1.7c-.45 0-.883-.184-1.202-.513A1.776 1.776 0 0 1 0 17.5c0-.464.18-.91.498-1.237A1.676 1.676 0 0 1 1.7 15.75h5.1c.45 0 .883.184 1.202.513.319.328.498.773.498 1.237Zm20.52 12.374a1.676 1.676 0 0 1-1.201.513c-.451 0-.883-.185-1.202-.513l-3.606-3.711a1.778 1.778 0 0 1-.477-1.232c.004-.458.183-.897.498-1.222a1.676 1.676 0 0 1 1.187-.512c.446-.004.875.172 1.196.491l3.606 3.71a1.793 1.793 0 0 1 0 2.476ZM10.99 11.312a1.676 1.676 0 0 1-1.202.512c-.45 0-.883-.184-1.202-.512l-3.604-3.71a1.777 1.777 0 0 1-.498-1.238c0-.464.178-.909.497-1.237a1.676 1.676 0 0 1 1.202-.513c.451 0 .884.184 1.203.512l3.604 3.712c.318.328.497.773.497 1.237 0 .464-.179.909-.497 1.237ZM4.98 29.874a1.776 1.776 0 0 1-.498-1.237c0-.464.18-.91.498-1.237l3.606-3.712a1.7 1.7 0 0 1 .552-.392 1.659 1.659 0 0 1 1.873.37 1.794 1.794 0 0 1-.021 2.496l-3.604 3.712a1.697 1.697 0 0 1-.552.38 1.657 1.657 0 0 1-1.854-.38Zm18.03-18.562a1.776 1.776 0 0 1-.497-1.237c0-.464.178-.91.497-1.237l3.604-3.712a1.676 1.676 0 0 1 1.202-.513c.451 0 .884.184 1.203.512.319.328.498.773.498 1.237 0 .465-.178.91-.497 1.238l-3.606 3.712a1.676 1.676 0 0 1-1.202.512c-.45 0-.883-.184-1.202-.512Z" fill="#000"/></svg>