<svg width="338" height="109" fill="none" xmlns="http://www.w3.org/2000/svg"><path d="M52.302 40.674c0 6.244-5.087 11.24-11.245 11.24H15.709c-6.248 0-11.246-5.085-11.246-11.24V15.342c0-6.244 5.087-11.239 11.246-11.239h25.348a11.196 11.196 0 0 1 11.245 11.24v25.331ZM104.961 40.674c0 6.244-5.087 11.24-11.245 11.24H68.368c-6.248 0-11.246-5.085-11.246-11.24V15.342c0-6.244 5.087-11.239 11.246-11.239h25.348a11.195 11.195 0 0 1 11.245 11.24v25.331ZM52.302 93.301c0 6.244-5.087 11.239-11.245 11.239H15.709c-6.248 0-11.246-5.084-11.246-11.239V67.97c0-6.244 5.087-11.239 11.246-11.239h25.348c6.247 0 11.245 5.084 11.245 11.239V93.3ZM104.961 93.301c0 6.244-5.087 11.239-11.245 11.239H68.368c-6.248 0-11.246-5.084-11.246-11.239V67.97c0-6.244 5.087-11.239 11.246-11.239h25.348c6.247 0 11.245 5.084 11.245 11.239V93.3ZM130.755 46.294c-6.069 0-9.907-1.695-13.655-5.352l2.142-2.14c3.659 3.656 6.694 4.816 11.602 4.816 6.427 0 10.532-3.122 10.532-8.474 0-2.408-.714-4.46-2.231-5.709-1.517-1.248-2.588-1.694-5.891-2.14l-4.73-.714c-3.124-.446-5.534-1.516-7.319-2.944-2.142-1.873-3.213-4.37-3.213-7.492 0-6.868 4.909-11.15 12.674-11.15 5.087 0 8.3 1.338 11.781 4.46l-2.052 2.052c-2.5-2.23-5.088-3.747-9.908-3.747-5.89 0-9.46 3.3-9.46 8.474 0 2.32.714 4.103 2.142 5.352 1.428 1.249 3.748 2.14 6.069 2.498l4.463.713c3.837.535 5.533 1.249 7.318 2.676 2.232 1.873 3.57 4.638 3.57 7.939-.089 6.511-5.355 10.882-13.834 10.882ZM156.549 45.937h-2.856l-10.086-27.651h3.214l8.3 24.261 8.301-24.261h3.213l-10.086 27.651ZM184.843 25.154c-1.25-2.855-4.017-4.638-7.14-4.638-3.124 0-5.98 1.784-7.141 4.638-.714 1.695-.892 2.587-.982 5.263h16.334c-.179-2.676-.357-3.48-1.071-5.263Zm-15.352 7.582c0 7.046 3.124 10.882 9.015 10.882 3.302 0 5.266-.981 7.676-3.3l2.142 1.694c-2.857 2.855-5.356 4.282-9.997 4.282-7.675 0-11.781-4.906-11.781-14.183 0-8.92 4.106-14.182 11.067-14.182 6.873 0 11.068 5.084 11.068 13.469v1.338h-19.19ZM208.494 22.745c-1.696-1.694-2.945-2.14-5.266-2.14-4.73 0-7.408 3.924-7.408 8.384v17.037h-2.945V18.375h2.945v3.657c1.607-2.587 4.82-4.014 8.122-4.014 2.678 0 4.731.714 6.694 2.676l-2.142 2.052ZM212.779 18.286h2.945v27.651h-2.945V18.286Zm-.357-13.202h3.659v3.657h-3.659V5.084ZM230.807 20.515c-6.783 0-7.854 5.888-7.854 11.596 0 5.709 1.071 11.596 7.854 11.596s7.854-5.887 7.854-11.596c0-5.708-1.071-11.595-7.854-11.595Zm-.536 38.98c-4.105 0-6.247-1.07-9.103-3.657l1.963-1.962c2.142 1.962 3.66 3.032 7.14 3.032 5.802 0 8.39-4.103 8.39-9.544v-4.906c-2.41 3.211-5.087 3.925-8.211 3.925-2.856 0-5.355-.981-6.783-2.408-2.856-2.855-3.57-7.404-3.57-11.775 0-4.37.714-8.92 3.57-11.774 1.428-1.427 3.927-2.408 6.783-2.408 3.124 0 5.801.714 8.211 3.925v-3.568h2.946v29.257c-.09 6.868-4.195 11.863-11.336 11.863ZM264.188 25.154c-1.249-2.855-4.016-4.638-7.14-4.638-3.124 0-5.98 1.784-7.14 4.638-.714 1.695-.893 2.587-.982 5.263h16.333c-.178-2.676-.357-3.48-1.071-5.263Zm-15.351 7.582c0 7.046 3.124 10.882 9.014 10.882 3.303 0 5.266-.981 7.676-3.3l2.142 1.694c-2.856 2.855-5.355 4.282-9.996 4.282-7.676 0-11.781-4.906-11.781-14.183 0-8.92 4.105-14.182 11.067-14.182 6.872 0 11.067 5.084 11.067 13.469v1.338h-19.189ZM281.681 46.294c-4.819 0-8.389-1.249-11.245-3.925l2.052-2.051c2.142 2.319 5.088 3.389 9.104 3.389 5.445 0 8.301-1.873 8.301-5.62 0-2.854-1.696-4.28-5.266-4.638l-4.552-.356c-5.534-.447-8.301-2.944-8.301-7.226 0-4.727 3.927-7.849 9.907-7.849 3.749 0 7.319 1.07 9.729 2.944l-1.964 1.962c-2.142-1.517-4.73-2.32-7.765-2.32-4.551 0-7.051 1.963-7.051 5.353 0 2.854 1.696 4.281 5.623 4.638l4.463.446c4.552.446 8.122 1.873 8.122 7.225-.089 4.906-4.373 8.028-11.157 8.028ZM118.349 104.362V63.509h26.061v5.53h-19.903v11.953h17.047v5.53h-17.047v12.31h19.903v5.53h-26.061ZM155.568 104.362c-5.534 0-7.944-3.747-7.944-8.028V63.509h5.891v32.468c0 2.23.803 3.39 3.124 3.39h2.588v4.995h-3.659ZM177.97 83.49c-.893-2.141-2.945-3.658-5.712-3.658s-4.909 1.517-5.802 3.657c-.535 1.338-.714 2.141-.714 3.925h13.12c-.178-1.784-.357-2.587-.892-3.925Zm-12.317 8.027c0 4.995 2.678 8.117 7.408 8.117 3.302 0 4.998-.892 7.051-2.943l3.749 3.478c-2.946 2.944-5.802 4.55-10.889 4.55-7.319 0-13.12-3.836-13.12-14.896 0-9.455 4.908-14.897 12.316-14.897 7.855 0 12.317 5.71 12.317 14.004v2.587h-18.832ZM199.301 104.362h-4.82L183.86 75.283h6.159l6.872 20.427 6.873-20.427h6.247l-10.71 29.079ZM230.094 104.362l-8.122-13.47-4.374 4.907v8.563h-5.801V63.509h5.801v25.154l11.335-13.38h7.141l-10.086 11.418 11.335 17.661h-7.229Z" fill="#fff"/><path d="M249.283 60.476c-2.053 0-3.659 1.606-3.659 3.657 0 2.052 1.695 3.657 3.659 3.657 2.053 0 3.659-1.605 3.659-3.657 0-2.051-1.695-3.657-3.659-3.657Zm5.444 31.041h-6.872c-3.481 0-5.266 1.517-5.266 4.193 0 2.675 1.696 4.103 5.355 4.103 2.232 0 3.927-.179 5.445-1.695.892-.892 1.249-2.23 1.249-4.282v-2.319h.089Zm-5.444-20.248c-3.927 0-7.14-3.21-7.14-7.136 0-3.924 3.213-7.135 7.14-7.135 3.927 0 7.14 3.21 7.14 7.135s-3.213 7.136-7.14 7.136Zm5.534 33.093v-2.676c-2.142 2.141-4.106 2.943-7.765 2.943-3.66 0-6.069-.892-7.854-2.676-1.518-1.516-2.321-3.746-2.321-6.243 0-4.906 3.392-8.385 10.086-8.385h7.675v-2.052c0-3.657-1.874-5.44-6.337-5.44-3.213 0-4.73.713-6.337 2.854l-3.838-3.657c2.767-3.212 5.623-4.193 10.443-4.193 7.944 0 12.049 3.39 12.049 9.99v19.535h-5.801ZM281.235 82.062c-1.338-1.338-2.32-1.962-4.373-1.962-3.124 0-5.801 2.497-5.801 6.511v17.751h-5.891V75.283h5.712v3.122c1.517-2.051 4.463-3.479 7.765-3.479 2.856 0 4.909.714 6.962 2.766l-4.374 4.37ZM302.834 83.49c-.892-2.141-2.945-3.658-5.712-3.658s-4.909 1.517-5.801 3.657c-.536 1.338-.715 2.141-.715 3.925h13.121c-.179-1.784-.357-2.587-.893-3.925Zm-12.317 8.027c0 4.995 2.678 8.117 7.408 8.117 3.303 0 4.998-.892 7.051-2.943l3.749 3.478c-2.946 2.944-5.802 4.55-10.889 4.55-7.319 0-13.12-3.836-13.12-14.896 0-9.455 4.909-14.897 12.317-14.897 7.854 0 12.317 5.71 12.317 14.004v2.587h-18.833ZM328.897 82.062c-1.339-1.338-2.321-1.962-4.374-1.962-3.124 0-5.801 2.497-5.801 6.511v17.751h-5.891V75.283h5.712v3.122c1.518-2.051 4.463-3.479 7.765-3.479 2.856 0 4.909.714 6.962 2.766l-4.373 4.37Z" fill="#fff"/></svg>