<svg width="342" height="110" fill="none" xmlns="http://www.w3.org/2000/svg"><path d="M52.921 41.048c0 6.301-5.147 11.342-11.379 11.342H15.895c-6.322 0-11.38-5.13-11.38-11.342V15.484c0-6.301 5.148-11.342 11.38-11.342h25.647c6.322 0 11.38 5.04 11.38 11.342v25.564Z" fill="#B9C400"/><path d="M106.203 41.048c0 6.301-5.147 11.342-11.379 11.342H69.178c-6.322 0-11.38-5.13-11.38-11.342V15.484c0-6.301 5.148-11.342 11.38-11.342h25.647c6.322 0 11.379 5.04 11.379 11.342v25.564Z" fill="#63C2D0"/><path d="M52.921 94.158c0 6.301-5.147 11.342-11.379 11.342H15.895c-6.322 0-11.38-5.131-11.38-11.342V68.593c0-6.301 5.148-11.342 11.38-11.342h25.647c6.322 0 11.38 5.13 11.38 11.342v25.565Z" fill="#DC6BA5"/><path d="M106.203 94.158c0 6.301-5.147 11.342-11.379 11.342H69.178c-6.322 0-11.38-5.131-11.38-11.342V68.593c0-6.301 5.148-11.342 11.38-11.342h25.647c6.322 0 11.379 5.13 11.379 11.342v25.565Z" fill="#EF7F3C"/><path d="M132.303 46.72c-6.141 0-10.025-1.71-13.818-5.401l2.168-2.16c3.703 3.69 6.773 4.86 11.74 4.86 6.502 0 10.656-3.15 10.656-8.551 0-2.43-.722-4.501-2.257-5.762-1.535-1.26-2.619-1.71-5.961-2.16l-4.786-.72c-3.161-.45-5.599-1.53-7.405-2.97-2.168-1.89-3.251-4.411-3.251-7.562 0-6.931 4.967-11.252 12.823-11.252 5.148 0 8.399 1.35 11.921 4.5l-2.077 2.071c-2.529-2.25-5.148-3.78-10.024-3.78-5.961 0-9.573 3.33-9.573 8.551 0 2.34.723 4.14 2.167 5.401 1.445 1.26 3.793 2.16 6.141 2.52l4.516.72c3.883.54 5.599 1.26 7.405 2.701 2.258 1.89 3.613 4.681 3.613 8.012-.091 6.57-5.419 10.982-13.998 10.982ZM158.402 46.358h-2.889l-10.205-27.905h3.251l8.398 24.485 8.399-24.485h3.251l-10.205 27.905ZM187.03 25.386c-1.264-2.881-4.064-4.681-7.225-4.681-3.161 0-6.05 1.8-7.224 4.68-.723 1.71-.904 2.611-.994 5.311h16.527c-.181-2.7-.362-3.51-1.084-5.31Zm-15.533 7.651c0 7.111 3.161 10.982 9.121 10.982 3.341 0 5.328-.99 7.767-3.33l2.167 1.71c-2.89 2.88-5.419 4.32-10.115 4.32-7.766 0-11.92-4.95-11.92-14.312 0-9.002 4.154-14.313 11.198-14.313 6.954 0 11.198 5.131 11.198 13.593v1.35h-19.416ZM210.961 22.954c-1.716-1.71-2.98-2.16-5.328-2.16-4.786 0-7.496 3.96-7.496 8.461v17.193h-2.98V18.543h2.98v3.69c1.626-2.61 4.877-4.05 8.219-4.05 2.709 0 4.786.72 6.773 2.7l-2.168 2.071ZM215.297 18.453h2.98v27.905h-2.98V18.453Zm-.361-13.323h3.702v3.69h-3.702V5.13ZM233.539 20.704c-6.863 0-7.947 5.94-7.947 11.702 0 5.76 1.084 11.702 7.947 11.702 6.864 0 7.947-5.941 7.947-11.702s-1.083-11.702-7.947-11.702Zm-.542 39.337c-4.154 0-6.321-1.08-9.211-3.691l1.987-1.98c2.167 1.98 3.702 3.06 7.224 3.06 5.87 0 8.489-4.14 8.489-9.632v-4.95c-2.438 3.24-5.147 3.96-8.308 3.96-2.89 0-5.419-.99-6.863-2.43-2.89-2.88-3.613-7.471-3.613-11.882s.723-9.002 3.613-11.883c1.444-1.44 3.973-2.43 6.863-2.43 3.161 0 5.87.72 8.308 3.96v-3.6h2.981V48.07c-.091 6.93-4.245 11.972-11.47 11.972ZM267.314 25.386c-1.264-2.881-4.064-4.681-7.225-4.681-3.16 0-6.05 1.8-7.224 4.68-.723 1.71-.903 2.611-.994 5.311h16.527c-.181-2.7-.361-3.51-1.084-5.31Zm-15.533 7.651c0 7.111 3.161 10.982 9.121 10.982 3.342 0 5.328-.99 7.767-3.33l2.167 1.71c-2.89 2.88-5.418 4.32-10.114 4.32-7.767 0-11.921-4.95-11.921-14.312 0-9.002 4.154-14.313 11.198-14.313 6.954 0 11.198 5.131 11.198 13.593v1.35h-19.416ZM285.015 46.718c-4.877 0-8.489-1.26-11.379-3.96l2.077-2.07c2.167 2.34 5.147 3.42 9.211 3.42 5.509 0 8.399-1.89 8.399-5.671 0-2.88-1.716-4.321-5.328-4.681l-4.606-.36c-5.599-.45-8.399-2.97-8.399-7.291 0-4.771 3.974-7.922 10.025-7.922 3.793 0 7.405 1.08 9.843 2.97l-1.986 1.981c-2.168-1.53-4.787-2.34-7.857-2.34-4.606 0-7.135 1.98-7.135 5.4 0 2.881 1.716 4.321 5.69 4.681l4.515.45c4.606.45 8.218 1.89 8.218 7.292-.09 4.95-4.425 8.101-11.288 8.101ZM119.75 105.319V64.091h26.37v5.582h-20.139v12.062h17.249v5.58h-17.249v12.423h20.139v5.581h-26.37ZM157.409 105.319c-5.6 0-8.038-3.781-8.038-8.102V64.091h5.96v32.766c0 2.25.813 3.421 3.161 3.421h2.619v5.041h-3.702ZM180.076 84.255c-.903-2.16-2.98-3.69-5.78-3.69-2.799 0-4.967 1.53-5.87 3.69-.542 1.35-.722 2.16-.722 3.96h13.275c-.181-1.8-.361-2.61-.903-3.96Zm-12.463 8.102c0 5.04 2.709 8.191 7.496 8.191 3.341 0 5.057-.9 7.134-2.97l3.793 3.51c-2.98 2.971-5.87 4.591-11.017 4.591-7.406 0-13.276-3.871-13.276-15.033 0-9.541 4.967-15.032 12.463-15.032 7.947 0 12.462 5.76 12.462 14.132v2.61h-19.055ZM201.66 105.319h-4.877l-10.747-29.346h6.231l6.954 20.614 6.954-20.614h6.322L201.66 105.32ZM232.816 105.319l-8.218-13.593-4.425 4.951v8.642h-5.87V64.091h5.87v25.385l11.469-13.502h7.225l-10.205 11.522 11.469 17.823h-7.315Z" fill="#1D1D1B"/><path d="M252.233 61.03c-2.077 0-3.703 1.62-3.703 3.69 0 2.071 1.716 3.691 3.703 3.691 2.077 0 3.702-1.62 3.702-3.69s-1.716-3.691-3.702-3.691Zm5.508 31.326h-6.953c-3.522 0-5.329 1.53-5.329 4.23 0 2.701 1.716 4.141 5.419 4.141 2.258 0 3.974-.18 5.509-1.71.903-.9 1.264-2.25 1.264-4.32v-2.341h.09Zm-5.508-20.434c-3.974 0-7.225-3.24-7.225-7.201 0-3.961 3.251-7.202 7.225-7.202 3.973 0 7.224 3.241 7.224 7.202 0 3.96-3.251 7.201-7.224 7.201Zm5.599 33.396v-2.7c-2.168 2.16-4.154 2.97-7.857 2.97-3.703 0-6.141-.9-7.947-2.7-1.536-1.531-2.348-3.781-2.348-6.302 0-4.95 3.431-8.461 10.205-8.461h7.766v-2.07c0-3.691-1.896-5.491-6.412-5.491-3.251 0-4.786.72-6.412 2.88l-3.883-3.69c2.8-3.241 5.689-4.231 10.566-4.231 8.038 0 12.192 3.42 12.192 10.082v19.713h-5.87ZM284.563 82.815c-1.354-1.35-2.348-1.98-4.425-1.98-3.161 0-5.87 2.52-5.87 6.57v17.914h-5.96V75.974h5.779v3.15c1.536-2.07 4.516-3.51 7.857-3.51 2.89 0 4.967.72 7.044 2.79l-4.425 4.411ZM306.419 84.255c-.903-2.16-2.981-3.69-5.78-3.69-2.8 0-4.967 1.53-5.87 3.69-.542 1.35-.723 2.16-.723 3.96h13.276c-.181-1.8-.362-2.61-.903-3.96Zm-12.463 8.102c0 5.04 2.709 8.191 7.496 8.191 3.341 0 5.057-.9 7.134-2.97l3.793 3.51c-2.98 2.971-5.87 4.591-11.018 4.591-7.405 0-13.275-3.871-13.275-15.033 0-9.541 4.967-15.032 12.463-15.032 7.947 0 12.462 5.76 12.462 14.132v2.61h-19.055ZM332.789 82.815c-1.355-1.35-2.348-1.98-4.425-1.98-3.161 0-5.87 2.52-5.87 6.57v17.914h-5.961V75.974h5.78v3.15c1.535-2.07 4.515-3.51 7.857-3.51 2.89 0 4.967.72 7.044 2.79l-4.425 4.411Z" fill="#1D1D1B"/></svg>