<svg width="166" height="168" fill="none" xmlns="http://www.w3.org/2000/svg"><circle cx="83" cy="83" r="83" fill="#EFC5DE" fill-opacity=".3"/><g clip-path="url(#a)"><path d="M88.038 59.942c3.94-4.629 10.014-13.926 14.104-18.687a1.512 1.512 0 0 0-.334-2.255 1.51 1.51 0 0 0-.816-.237h-7.44l7.019-15.882c.302-.679-.623-1.219-1.067-.625L82.527 44.988a.94.94 0 0 0 .867 1.495l8.425-1.038-5.013 13.777c-.272.76.71 1.334 1.232.72ZM53 88.132c.886-4.548 1.446-12.997 2.383-17.69a1.15 1.15 0 0 0-1.696-1.226l-4.946 2.786-1.275-13.181c-.055-.563-.87-.576-.943-.015l-2.775 21.45a.717.717 0 0 0 1.135.67l5.208-3.844 1.82 11.028c.105.61.972.626 1.09.022ZM113.497 90.375c1.957-2.201 4.997-6.641 7.028-8.904a.734.734 0 0 0 .127-.78.735.735 0 0 0-.657-.44l-3.607-.077 3.568-7.621c.152-.326-.289-.597-.511-.314l-8.46 10.834a.454.454 0 0 0 .405.733l4.092-.416-2.573 6.62c-.14.368.329.657.588.365Z" fill="#DA6CA2"/><path d="m127.374 160.72-84.69 7.144a11.682 11.682 0 0 1-10.515-4.886 11.702 11.702 0 0 1-1.14-11.545l35.88-80.35c1.762-3.948 5.386-6.523 9.692-6.885 4.307-.362 8.31 1.568 10.708 5.165l48.813 73.203a11.703 11.703 0 0 1-8.748 18.15v.004ZM77.145 70.604a5.194 5.194 0 0 0-4.363 3.1l-35.88 80.35a5.268 5.268 0 0 0 5.247 7.396l84.689-7.144a5.258 5.258 0 0 0 4.298-2.961 5.268 5.268 0 0 0-.362-5.209l-48.81-73.207a5.2 5.2 0 0 0-4.819-2.325Z" fill="#EFC5DE"/><path d="m125.737 157.127-82.084 6.955c-6.238.529-10.74-5.858-8.187-11.598L70.24 74.261c2.631-5.935 10.74-6.621 14.327-1.214l47.309 71.268c3.47 5.231.088 12.283-6.14 12.812Z" fill="#EFC5DE"/><path d="M76.944 142.599a6.153 6.153 0 0 1 .255-2.411 5.586 5.586 0 0 1 1.122-1.996 5.909 5.909 0 0 1 1.885-1.414c.75-.363 1.61-.587 2.581-.671a7.424 7.424 0 0 1 2.675.223 5.835 5.835 0 0 1 2.111 1.073 5.576 5.576 0 0 1 1.437 1.778c.37.726.59 1.519.65 2.333a6.012 6.012 0 0 1-.257 2.392 5.632 5.632 0 0 1-1.123 1.976 5.832 5.832 0 0 1-1.906 1.419c-.82.381-1.7.608-2.6.673-.971.082-1.856.008-2.655-.224a5.84 5.84 0 0 1-2.091-1.075 5.582 5.582 0 0 1-1.436-1.758 6.001 6.001 0 0 1-.648-2.318Zm10.145-12.014-9.45.806-4.058-32.563 12.126-1.035 1.382 32.792Z" fill="#DA6CA2"/></g><defs><clipPath id="a"><path fill="#fff" transform="translate(30 22)" d="M0 0h108.104v145.902H0z"/></clipPath></defs></svg>