<svg width="173" height="166" fill="none" xmlns="http://www.w3.org/2000/svg"><circle cx="90" cy="83" r="83" fill="#F6ECF3"/><g clip-path="url(#a)"><path d="M57.401 141.33c.437 1.138.885 2.43.618 3.625-.328 1.459-1.582 2.24-2.715 2.862-.377.205-.81.413-1.201.22a1.78 1.78 0 0 1-.577-.577 208.925 208.925 0 0 1-12.114-18.531c.309.531 8.883-5.106 10.947-1.895.851 1.327 1.307 4.489 1.91 6.066 1.031 2.739 2.075 5.483 3.133 8.23ZM114.301 90.9c-.723-.09-1.129-.56-1.107-1.137.042-.64.497-1.016 1.269-1.038.108-.006.216-.006.324 0a382.906 382.906 0 0 0 17.172 1.516c3.634.235 7.264.565 10.894.823.753.053 1.507.022 2.09.633l.057.52a1.619 1.619 0 0 1-1.71.876c-3.141-.19-6.281-.327-9.414-.517-5.389-.326-10.778-.697-16.144-1.289-1.145-.132-2.293-.235-3.431-.386Z" fill="#DA6CA2"/><path d="M16.78 114.413c.03-.519-.207-1.035-.03-1.558 1.374-1.206 2.722-2.445 4.142-3.605a144.313 144.313 0 0 0 19.654-19.437c3.912-4.755 7.584-9.664 10.457-15.138 2.448-4.66 4.805-9.35 6.146-14.486.527-2.029 1.005-4.076 2.014-5.937.396-.728.848-1.426 1.733-1.646.21.133.162.326.128.527a46.781 46.781 0 0 0-.452 9.1c.089 2.245.301 4.484.636 6.706.377 2.725 1.31 5.307 2.26 7.878.632 1.71 1.22 3.438 1.819 5.163.094.273.2.504.527.478v.038c-.23.204-.17.432-.045.705.805 1.763 1.758 3.446 2.662 5.16 2.402 4.549 5.618 8.48 8.83 12.427a36.016 36.016 0 0 0 3.07 3.454 33.181 33.181 0 0 0 2.978 3.188 59.745 59.745 0 0 0 6.376 5.687 79.476 79.476 0 0 0 10.1 6.657c.527.28 1.103.478 1.66.713-.452.534-1.111.621-1.713.652-4.143.208-8.258.648-12.37 1.137-.622.076-1.24.209-1.865.258-4.519.337-9.037.459-13.556.967-3.167.379-6.323.792-9.453 1.402-.805.163-2.259.379-3.615.618h-.045a11.61 11.61 0 0 0-2.952.622 1.317 1.317 0 0 0-.395.038c-2.377.489-2.836.883-5.148 1.622-2.727.869-5.404 1.866-8.093 2.848a1.803 1.803 0 0 0-.226.125 41.195 41.195 0 0 0-4.217 1.649 1.534 1.534 0 0 0-.189.053c-2.368.951-4.609 2.18-6.88 3.336a2.256 2.256 0 0 1-1.71-.595 36.646 36.646 0 0 1-3.55-3.033 31.705 31.705 0 0 1-5.472-7.203 34.82 34.82 0 0 1-2.666-6.373 11.516 11.516 0 0 1-.55-4.197Z" fill="#ECAFD3"/><path d="M99.788 119.759a79.535 79.535 0 0 1-10.08-6.657 59.863 59.863 0 0 1-6.376-5.687 33.075 33.075 0 0 1-2.979-3.189 46.996 46.996 0 0 1 4.282-6.388c1.047-1.307 2.184-2.54 3.276-3.79.185-.213.34-.452.509-.68.506-.326.866-.84 1.001-1.43a2.33 2.33 0 0 0-.278-1.727c-1.864-3.26-3.913-6.388-6.489-9.133a34.37 34.37 0 0 0-3.415-3.306c-.753-.622-1.657-.96-2.636-.538-.317.188-.6.43-.836.712a41.886 41.886 0 0 1-9.867 4.512h-.052c-.328.026-.433-.205-.527-.478-.6-1.725-1.187-3.454-1.82-5.163-.956-2.57-1.882-5.152-2.259-7.878a61.308 61.308 0 0 1-.636-6.707c-.146-3.04.005-6.088.452-9.099.034-.2.083-.379-.128-.527.184-.22.403 0 .61-.053 1.94-.405 3.679.277 5.392 1.05a54.963 54.963 0 0 1 11.173 6.991 59.908 59.908 0 0 1 6.617 5.99 105.371 105.371 0 0 1 13.112 17.06 49.332 49.332 0 0 1 4.677 9.94c1.088 3.19 1.691 6.472 2.226 9.782.131.83.022 1.698.162 2.54.241 1.479.018 2.957 0 4.432a27.475 27.475 0 0 1-.825 5.74 10.544 10.544 0 0 1-1.175 3.032c-.377.626-.994.876-1.439 1.361-.568-.235-1.144-.432-1.672-.712ZM.162 125.548c.184-.952.32-2.002 1.16-2.654 1.882-1.433 3.765-2.889 5.761-4.17 2.425-1.517 4.832-3.094 7.276-4.591.755-.51 1.555-.948 2.39-1.308-.176.523.061 1.039.03 1.558-.08 1.419.103 2.841.54 4.193a34.812 34.812 0 0 0 2.666 6.373 31.711 31.711 0 0 0 5.471 7.203 36.646 36.646 0 0 0 3.551 3.033 2.256 2.256 0 0 0 1.71.595c-.287.41-.668.745-1.11.974-.897.531-1.812 1.035-2.686 1.6-3.728 2.408-7.678 4.432-11.391 6.858-1.68 1.1-3.209 1.289-4.986.152-1.201-.758-2.5-1.403-3.608-2.316-2.157-1.786-3.55-4.152-4.79-6.62a19.594 19.594 0 0 1-1.758-5.584c-.305-1.751-.573-3.514-.226-5.296Z" fill="#EFC5DE"/><path d="M106.488 34.087c-2.896 5.561-5.86 11.051-9.14 16.393-.651 1.057-1.261 2.142-1.931 3.188a1.123 1.123 0 0 1-1.533.38 1.137 1.137 0 0 1-.316-1.517c.143-.296.312-.577.478-.857 1.427-2.4 2.888-4.777 4.281-7.203 2.636-4.572 5.058-9.262 7.844-13.743.223-.38.449-.705.919-.758a.957.957 0 0 1 .919.452.969.969 0 0 1-.007 1.03c-.452.929-1.051 1.751-1.514 2.635ZM105.9 67.59c.753-.517 1.506-1.028 2.297-1.487 4.376-2.555 8.978-4.655 13.478-6.968.092-.04.188-.072.286-.095a.935.935 0 0 1 1.066.482.879.879 0 0 1-.189 1.137c-.281.239-.59.444-.918.61-4.964 2.684-10.089 5.069-14.826 8.166-.678.444-1.326.341-1.683-.178-.358-.52-.223-1.175.489-1.668ZM112.381 106.994c.229.068.45.16.659.277a79.903 79.903 0 0 1 7.245 4.124 5.21 5.21 0 0 1 1.013.706.922.922 0 0 1 .222 1.027.94.94 0 0 1-.79.599 1.59 1.59 0 0 1-1.028-.353 84.622 84.622 0 0 0-7.841-4.265 1.782 1.782 0 0 1-.437-.276 1.068 1.068 0 0 1 .262-1.782c.219-.098.464-.118.695-.057ZM76.527 51.53a.938.938 0 0 1-.61.87.92.92 0 0 1-.369.055c-.534 0-.873-.402-.956-1.357.12-1.304.248-2.912.43-4.512a1.014 1.014 0 0 1 .345-.747.999.999 0 0 1 .784-.239 1.055 1.055 0 0 1 .703.438 1.075 1.075 0 0 1 .178.814c-.128 1.562-.328 3.12-.505 4.678ZM65.863 82.45a41.89 41.89 0 0 0 9.866-4.511c.041.045.132.095.124.136-.2 1.824.863 3.147 1.82 4.47 1.856 2.567 4.036 4.868 6.1 7.26.903 1.05 1.736 2.157 2.831 3.033a2.073 2.073 0 0 0 1.797.527c-.17.227-.324.466-.509.678-1.092 1.27-2.229 2.503-3.276 3.792a46.935 46.935 0 0 0-4.282 6.388 36.565 36.565 0 0 1-3.069-3.454c-3.212-3.947-6.428-7.893-8.83-12.427-.904-1.714-1.857-3.412-2.663-5.16-.124-.273-.184-.5.045-.705a.239.239 0 0 1 .046-.042v.015Z" fill="#DA6CA2"/><path d="M86.604 92.834c-1.095-.872-1.928-1.979-2.831-3.033-2.064-2.384-4.233-4.69-6.116-7.256-.956-1.323-2.018-2.654-1.819-4.47 0-.041-.083-.09-.124-.136a3.27 3.27 0 0 1 .836-.713c.998-.42 1.883-.083 2.636.538A34.37 34.37 0 0 1 82.6 81.07c2.576 2.745 4.625 5.873 6.489 9.133a2.33 2.33 0 0 1-.723 3.158 2.062 2.062 0 0 1-1.763-.527Z" fill="#DA6CA2"/></g><defs><clipPath id="a"><path fill="#fff" transform="translate(0 30)" d="M0 0h145v118.113H0z"/></clipPath></defs></svg>