<svg width="165" height="175" viewBox="0 0 165 175" fill="none" xmlns="http://www.w3.org/2000/svg">
<ellipse cx="82.3246" cy="81.1831" rx="82.3246" ry="81.1831" fill="#EBF7FA"/>
<path d="M83.3905 146.257L83.7729 142.029C84.1799 137.528 86.2766 135.925 89.2895 133.44L94.2485 129.477C102.522 122.781 109.436 115.69 110.423 104.779C112.027 87.0473 98.9477 77.511 82.7652 76.0879C66.9977 74.7013 52.9674 81.8537 51.4379 98.7666L69.6951 100.372C70.3885 94.2465 75.6514 91.5473 81.3222 92.046C87.4079 92.5812 91.6392 96.6652 91.0718 102.939C90.4921 109.35 86.8643 112.468 80.8631 117.164L74.1087 122.482C69.3004 126.321 68.0238 129.646 67.5058 135.374L66.6548 144.785L83.3905 146.257ZM82.1659 172.133L63.2172 170.467L64.8946 151.917L83.8433 153.583L82.1659 172.133Z" fill="#BCE3EE"/>
<line x1="1" y1="-1" x2="18.5661" y2="-1" transform="matrix(-0.119617 0.99282 -0.993206 -0.116368 88.1216 33.7426)" stroke="#65C2CC" stroke-width="2" stroke-linecap="round"/>
<line x1="1" y1="-1" x2="5.84812" y2="-1" transform="matrix(-0.119617 0.99282 -0.993206 -0.116368 89.5884 20.5403)" stroke="#65C2CC" stroke-width="2" stroke-linecap="round"/>
<line x1="1" y1="-1" x2="12.772" y2="-1" transform="matrix(0.640029 0.76835 -0.777044 0.629446 45.8008 55.5088)" stroke="#65C2CC" stroke-width="2" stroke-linecap="round"/>
<line x1="1" y1="-1" x2="3.91837" y2="-1" transform="matrix(0.640029 0.76835 -0.777044 0.629446 40.7642 49.4626)" stroke="#65C2CC" stroke-width="2" stroke-linecap="round"/>
<line x1="1" y1="-1" x2="12.8296" y2="-1" transform="matrix(0.841463 -0.540315 0.551015 0.834495 44.3398 137.561)" stroke="#65C2CC" stroke-width="2" stroke-linecap="round"/>
<line x1="1" y1="-1" x2="3.93894" y2="-1" transform="matrix(0.841463 -0.540315 0.551015 0.834495 37.6904 141.831)" stroke="#65C2CC" stroke-width="2" stroke-linecap="round"/>
<line x1="1" y1="-1" x2="12.8296" y2="-1" transform="matrix(-0.841463 -0.540315 -0.551015 0.834495 123.717 139.517)" stroke="#65C2CC" stroke-width="2" stroke-linecap="round"/>
<line x1="1" y1="-1" x2="3.93894" y2="-1" transform="matrix(-0.841463 -0.540315 -0.551015 0.834495 130.367 143.786)" stroke="#65C2CC" stroke-width="2" stroke-linecap="round"/>
<line x1="1" y1="-1" x2="12.8121" y2="-1" transform="matrix(-0.78595 0.618289 0.628931 0.777461 125.414 65.1652)" stroke="#65C2CC" stroke-width="2" stroke-linecap="round"/>
<line x1="1" y1="-1" x2="3.93268" y2="-1" transform="matrix(-0.78595 0.618289 0.628931 0.777461 131.615 60.284)" stroke="#65C2CC" stroke-width="2" stroke-linecap="round"/>
<ellipse cx="21.8211" cy="79.2269" rx="1.98373" ry="1.95622" fill="#BCE3EE"/>
<ellipse cx="118.032" cy="37.7968" rx="1.98373" ry="1.95622" fill="#BCE3EE"/>
<ellipse cx="85.3011" cy="66.1618" rx="1.98373" ry="1.95622" fill="#BCE3EE"/>
<ellipse cx="98.1947" cy="147.694" rx="1.98373" ry="1.95622" fill="#BCE3EE"/>
<ellipse cx="149.771" cy="66.1618" rx="1.98373" ry="1.95622" fill="#BCE3EE"/>
<ellipse cx="139.853" cy="120.308" rx="1.98373" ry="1.95622" fill="#BCE3EE"/>
<ellipse cx="124.975" cy="89.9866" rx="1.98373" ry="1.95622" fill="#BCE3EE"/>
<ellipse cx="60.5037" cy="31.928" rx="1.98373" ry="1.95622" fill="#BCE3EE"/>
<ellipse cx="37.6912" cy="113.46" rx="1.98373" ry="1.95622" fill="#BCE3EE"/>
</svg>
