<svg width="165" height="175" viewBox="0 0 165 175" fill="none" xmlns="http://www.w3.org/2000/svg">
<ellipse cx="82.3246" cy="81.1831" rx="82.3246" ry="81.1831" fill="#F6ECF3"/>
<path d="M83.3906 146.257L83.773 142.029C84.18 137.528 86.2767 135.925 89.2896 133.44L94.2486 129.477C102.522 122.781 109.437 115.69 110.423 104.779C112.027 87.0473 98.9479 77.511 82.7654 76.0879C66.9978 74.7013 52.9675 81.8537 51.4381 98.7666L69.6952 100.372C70.3886 94.2465 75.6515 91.5473 81.3223 92.046C87.408 92.5812 91.6393 96.6652 91.0719 102.939C90.4922 109.35 86.8644 112.468 80.8632 117.164L74.1088 122.482C69.3005 126.321 68.024 129.646 67.5059 135.374L66.6549 144.785L83.3906 146.257ZM82.166 172.133L63.2173 170.467L64.8947 151.917L83.8434 153.583L82.166 172.133Z" fill="#EFC5DE"/>
<line x1="1" y1="-1" x2="18.5661" y2="-1" transform="matrix(-0.119617 0.99282 -0.993206 -0.116368 88.1217 33.7425)" stroke="#DA6CA2" stroke-width="2" stroke-linecap="round"/>
<line x1="1" y1="-1" x2="5.84812" y2="-1" transform="matrix(-0.119617 0.99282 -0.993206 -0.116368 89.5885 20.5403)" stroke="#DA6CA2" stroke-width="2" stroke-linecap="round"/>
<line x1="1" y1="-1" x2="12.772" y2="-1" transform="matrix(0.640029 0.76835 -0.777044 0.629446 45.8009 55.5088)" stroke="#DA6CA2" stroke-width="2" stroke-linecap="round"/>
<line x1="1" y1="-1" x2="3.91837" y2="-1" transform="matrix(0.640029 0.76835 -0.777044 0.629446 40.7643 49.4626)" stroke="#DA6CA2" stroke-width="2" stroke-linecap="round"/>
<line x1="1" y1="-1" x2="12.8296" y2="-1" transform="matrix(0.841463 -0.540315 0.551015 0.834495 44.3401 137.561)" stroke="#DA6CA2" stroke-width="2" stroke-linecap="round"/>
<line x1="1" y1="-1" x2="3.93894" y2="-1" transform="matrix(0.841463 -0.540315 0.551015 0.834495 37.6906 141.831)" stroke="#DA6CA2" stroke-width="2" stroke-linecap="round"/>
<line x1="1" y1="-1" x2="12.8296" y2="-1" transform="matrix(-0.841463 -0.540315 -0.551015 0.834495 123.717 139.517)" stroke="#DA6CA2" stroke-width="2" stroke-linecap="round"/>
<line x1="1" y1="-1" x2="3.93894" y2="-1" transform="matrix(-0.841463 -0.540315 -0.551015 0.834495 130.367 143.786)" stroke="#DA6CA2" stroke-width="2" stroke-linecap="round"/>
<line x1="1" y1="-1" x2="12.8121" y2="-1" transform="matrix(-0.78595 0.618289 0.628931 0.777461 125.414 65.1652)" stroke="#DA6CA2" stroke-width="2" stroke-linecap="round"/>
<line x1="1" y1="-1" x2="3.93268" y2="-1" transform="matrix(-0.78595 0.618289 0.628931 0.777461 131.615 60.284)" stroke="#DA6CA2" stroke-width="2" stroke-linecap="round"/>
<ellipse cx="21.8214" cy="79.2268" rx="1.98373" ry="1.95622" fill="#EFC5DE"/>
<ellipse cx="118.032" cy="37.7968" rx="1.98373" ry="1.95622" fill="#EFC5DE"/>
<ellipse cx="85.3012" cy="66.1618" rx="1.98373" ry="1.95622" fill="#EFC5DE"/>
<ellipse cx="98.1948" cy="147.694" rx="1.98373" ry="1.95622" fill="#EFC5DE"/>
<ellipse cx="149.771" cy="66.1618" rx="1.98373" ry="1.95622" fill="#EFC5DE"/>
<ellipse cx="139.853" cy="120.308" rx="1.98373" ry="1.95622" fill="#EFC5DE"/>
<ellipse cx="124.975" cy="89.9866" rx="1.98373" ry="1.95622" fill="#EFC5DE"/>
<ellipse cx="60.5039" cy="31.9281" rx="1.98373" ry="1.95622" fill="#EFC5DE"/>
<ellipse cx="37.6914" cy="113.46" rx="1.98373" ry="1.95622" fill="#EFC5DE"/>
</svg>
