<svg width="165" height="175" fill="none" xmlns="http://www.w3.org/2000/svg"><ellipse cx="82.325" cy="81.183" rx="82.325" ry="81.183" fill="#EBF7FA"/><path d="m83.39 146.257.383-4.228c.407-4.501 2.504-6.104 5.517-8.589l4.959-3.963c8.273-6.696 15.187-13.787 16.174-24.698 1.604-17.732-11.475-27.268-27.658-28.691-15.767-1.387-29.798 5.766-31.327 22.679l18.257 1.605c.694-6.126 5.956-8.825 11.627-8.326 6.086.535 10.317 4.62 9.75 10.893-.58 6.411-4.208 9.529-10.209 14.225l-6.754 5.318c-4.809 3.839-6.085 7.164-6.603 12.892l-.851 9.411 16.736 1.472Zm-1.224 25.876-18.949-1.666 1.678-18.55 18.948 1.666-1.677 18.55Z" fill="#BCE3EE"/><path transform="matrix(-.11962 .99282 -.9932 -.11637 88.122 33.743)" stroke="#65C2CC" stroke-width="2" stroke-linecap="round" d="M1-1h17.566"/><path transform="matrix(-.11962 .99282 -.9932 -.11637 89.588 20.54)" stroke="#65C2CC" stroke-width="2" stroke-linecap="round" d="M1-1h4.848"/><path transform="matrix(.64003 .76835 -.77704 .62945 45.8 55.509)" stroke="#65C2CC" stroke-width="2" stroke-linecap="round" d="M1-1h11.772"/><path transform="matrix(.64003 .76835 -.77704 .62945 40.764 49.463)" stroke="#65C2CC" stroke-width="2" stroke-linecap="round" d="M1-1h2.918"/><path transform="matrix(.84146 -.54031 .55102 .8345 44.34 137.561)" stroke="#65C2CC" stroke-width="2" stroke-linecap="round" d="M1-1h11.83"/><path transform="matrix(.84146 -.54031 .55102 .8345 37.69 141.831)" stroke="#65C2CC" stroke-width="2" stroke-linecap="round" d="M1-1h2.939"/><path transform="matrix(-.84146 -.54031 -.55102 .8345 123.717 139.517)" stroke="#65C2CC" stroke-width="2" stroke-linecap="round" d="M1-1h11.83"/><path transform="matrix(-.84146 -.54031 -.55102 .8345 130.367 143.786)" stroke="#65C2CC" stroke-width="2" stroke-linecap="round" d="M1-1h2.939"/><path transform="matrix(-.78595 .61829 .62893 .77746 125.414 65.165)" stroke="#65C2CC" stroke-width="2" stroke-linecap="round" d="M1-1h11.812"/><path transform="matrix(-.78595 .61829 .62893 .77746 131.615 60.284)" stroke="#65C2CC" stroke-width="2" stroke-linecap="round" d="M1-1h2.933"/><ellipse cx="21.821" cy="79.227" rx="1.984" ry="1.956" fill="#BCE3EE"/><ellipse cx="118.032" cy="37.797" rx="1.984" ry="1.956" fill="#BCE3EE"/><ellipse cx="85.301" cy="66.162" rx="1.984" ry="1.956" fill="#BCE3EE"/><ellipse cx="98.195" cy="147.694" rx="1.984" ry="1.956" fill="#BCE3EE"/><ellipse cx="149.771" cy="66.162" rx="1.984" ry="1.956" fill="#BCE3EE"/><ellipse cx="139.853" cy="120.308" rx="1.984" ry="1.956" fill="#BCE3EE"/><ellipse cx="124.975" cy="89.987" rx="1.984" ry="1.956" fill="#BCE3EE"/><ellipse cx="60.504" cy="31.928" rx="1.984" ry="1.956" fill="#BCE3EE"/><ellipse cx="37.691" cy="113.46" rx="1.984" ry="1.956" fill="#BCE3EE"/></svg>