<svg width="166" height="188" fill="none" xmlns="http://www.w3.org/2000/svg"><circle cx="83" cy="83" r="83" fill="#EBF7FA"/><path d="M40.091 178.727a1.678 1.678 0 0 0 1.077 2.146l17.864 6.063a1.71 1.71 0 0 0 1.314-.085 1.7 1.7 0 0 0 .868-.988l17.165-50.357a1.71 1.71 0 0 0-1.076-2.176l-17.864-6.063a1.75 1.75 0 0 0-2.182 1.074L40.09 178.727Z" fill="#BCE3EE"/><path d="m57.254 156.449-2.153 2.146-2.968-.551 1.368 2.698-1.455 2.639 2.997-.464 2.094 2.176.466-2.959 2.735-1.305-2.706-1.393-.378-2.987ZM69.505 132.315l-2.822 2.813-3.87-.725 1.775 3.51-1.89 3.481 3.927-.609 2.735 2.843.61-3.887 3.58-1.712-3.521-1.798-.524-3.916ZM68.369 156.1l-1.804-3.51 3.898.697 2.794-2.785-2.88 8.441-3.9.638 1.892-3.481ZM45.357 163.932l.524 3.916 3.52 1.799-3.578 1.682-.611 3.916-2.735-2.871-.233.029 2.764-8.151.35-.32ZM48.178 178.552l3.753.697 2.706-2.698.494 3.771 3.404 1.74-3.462 1.625-.29 1.827-5.761-1.943.872-1.625-1.716-3.394ZM62.639 170.053l-1.31 1.277-1.774-.348.814 1.624-.872 1.595 1.803-.29 1.252 1.335.29-1.799 1.659-.783-1.63-.812-.232-1.799ZM56.905 141.307l-1.775 1.798-2.502-.464 1.135 2.263-1.222 2.233 2.531-.406 1.746 1.857.407-2.495 2.299-1.102-2.27-1.161-.349-2.523ZM123.42 63.857l-5.354 2.552-5.12-2.959.756 5.86-4.393 3.974 5.848 1.044 2.415 5.425 2.822-5.193 5.877-.638-4.073-4.293 1.222-5.772ZM41.021 69.803l.96 2.001-1.105 1.944 2.211-.29 1.484 1.653.407-2.205 2.037-.899-1.95-1.044-.232-2.234-1.63 1.538-2.182-.464ZM84.895 126.194l1.222 2.581-1.426 2.495 2.852-.406 1.92 2.117.524-2.813 2.618-1.161-2.531-1.363-.32-2.843-2.066 1.973-2.793-.58ZM55.8 47.641l2.793.783.99 2.727 1.57-2.437 2.91-.057-1.833-2.263.844-2.785-2.706 1.044L57.982 43l.117 2.872-2.299 1.77ZM123.124 100.232l.902-3.713 3.579-1.392-3.288-2.001-.204-3.83-2.909 2.495-3.753-.986 1.484 3.539-2.095 3.22 3.869-.29 2.415 2.958ZM45.18 97.012l-.523 3.162-2.939 1.363 2.852 1.48.378 3.19 2.298-2.262 3.142.638-1.396-2.872 1.571-2.814-3.2.465-2.182-2.35ZM77.04 85.438l-.379 2.147-1.978.899 1.92 1.015.262 2.176 1.571-1.538 2.153.435-.989-1.943 1.077-1.915-2.154.32-1.483-1.596ZM90.395 46.22l.553 3.684-2.705 2.523 3.665.61 1.572 3.335 1.716-3.278 3.666-.464-2.59-2.64.699-3.625-3.317 1.653-3.258-1.798Z" fill="#65C2CC"/><path d="M67.556 126.426c-.436.145 1.6-9.747 1.396-20.044-.203-8.703-1.018-18.565-1.396-25.237-.815-14.098-3.084-30.313.64-30.545 3.724-.232 3.23 18.536 3.23 29.414 0 10.877-2.794 46.035-3.87 46.412ZM63.192 125.498c-.261.174-.261-7.223-1.949-14.504-1.397-6.236-3.433-13.169-4.684-17.926-2.677-10.008-6.692-21.35-4.044-22.046 2.647-.696 5.033 12.85 6.662 20.653 1.63 7.803 4.743 33.417 4.015 33.823ZM74.451 128.776c.146.261 4.16-5.57 9.485-10.501 4.51-4.148 9.892-8.528 13.47-11.603 7.536-6.469 16.846-13.228 15.158-15.2-1.687-1.973-10.968 7.397-16.467 12.705-5.499 5.309-22.111 23.989-21.646 24.599ZM71.541 126.832s30.753-60.423 35.263-67.675c4.509-7.252-1.368-8.992-3.492-4.815-2.123 4.177-24.7 52.561-31.77 72.49Z" fill="#BCE3EE"/><path d="M52.138 61.13a1.562 1.562 0 0 0 .96 1.972 1.605 1.605 0 0 0 1.978-.986 1.562 1.562 0 0 0-.99-1.944 1.546 1.546 0 0 0-1.948.958ZM87.196 101.334a1.537 1.537 0 0 0 1.545 2.148 1.54 1.54 0 0 0 1.365-1.161 1.508 1.508 0 0 0-.96-1.944 1.549 1.549 0 0 0-1.173.078 1.537 1.537 0 0 0-.777.879ZM96.65 116.622a2.34 2.34 0 0 0 .653 2.552 2.362 2.362 0 0 0 3.619-.605 2.349 2.349 0 0 0-1.362-3.398 2.365 2.365 0 0 0-1.746.145 2.35 2.35 0 0 0-1.163 1.306ZM53.59 108.035a1.014 1.014 0 0 1 .905-.721c.137-.009.274.009.404.054a1.074 1.074 0 0 1 .64 1.305.983.983 0 0 1-.908.705.982.982 0 0 1-.401-.067 1.017 1.017 0 0 1-.64-1.276ZM78.843 57.678a1.014 1.014 0 0 1 .905-.72c.137-.01.275.008.404.053a1.02 1.02 0 0 1 .698.907c.008.135-.012.27-.057.398a.985.985 0 0 1-.909.706.99.99 0 0 1-.4-.068 1.017 1.017 0 0 1-.64-1.276ZM82.891 67.86a2.053 2.053 0 0 0 .112 1.551c.24.483.659.853 1.168 1.03a2.032 2.032 0 0 0 2.468-2.812 2.003 2.003 0 0 0-1.158-1.016 2.042 2.042 0 0 0-2.59 1.247ZM109.917 104.235a1.481 1.481 0 0 0 .43 1.584 1.488 1.488 0 0 0 2.26-.372c.147-.252.216-.543.197-.834a1.474 1.474 0 0 0-1.573-1.384 1.49 1.49 0 0 0-1.025.503 1.47 1.47 0 0 0-.289.503ZM100.17 83.93a2.248 2.248 0 0 0-.014 1.832 2.26 2.26 0 0 0 1.351 1.242 2.274 2.274 0 0 0 2.94-1.624 2.225 2.225 0 0 0-.08-1.746 2.231 2.231 0 0 0-1.317-1.154 2.273 2.273 0 0 0-2.88 1.45ZM116.522 55.386a1.47 1.47 0 0 0 .427 1.593 1.487 1.487 0 0 0 2.267-.383 1.482 1.482 0 0 0-1.954-2.053 1.481 1.481 0 0 0-.74.843Z" fill="#65C2CC"/></svg>